<?xml version="1.0" encoding="utf-8"?>
<!-- Generator: Adobe Illustrator 20.1.0, SVG Export Plug-In . SVG Version: 6.00 Build 0)  -->
<svg version="1.1" id="Layer_1" xmlns="http://www.w3.org/2000/svg" xmlns:xlink="http://www.w3.org/1999/xlink" x="0px" y="0px"
	 width="95px" height="50px" viewBox="0 0 95 50" style="enable-background:new 0 0 95 50;" xml:space="preserve">
<path d="M77.3,40.7c0.6,0.7,0.5,1.2,0.5,1.2v5.9H66.6c0,0-2,0-2.8-1.5c0,0-2.1-3.4-11.2-3.1h-0.8c-9.1-0.3-11.2,3.1-11.2,3.1
	c-0.8,1.4-2.8,1.5-2.8,1.5H26.4V42c0,0-0.1-0.5,0.5-1.2l4.2-4.9c0.2-0.2,0.7-0.3,0.7-0.3l2.2-0.6h35.5l2.8,0.6c0,0,0.5,0.1,0.7,0.3
	L77.3,40.7z M35.7,2.2v1.4c0,0-0.7,0.9-3.6,0.9h-2.1v1.3H13.4c0,0-2.4-0.1-10.4-0.5L1.8,5.1c0,0-0.1,0-0.1,0c-0.4,0-0.8,0.3-0.8,0.8
	c0,0.2,0,0.3,0.1,0.4l0.1,0.1c0,0,8.9,14.7,28.5,14.9l4.2,0c3.9,0,7.4,3.3,7.4,7.2c0,2.1-1.2,4-3,5h27.7c-1.9-1.3-3.2-3.6-3.2-6.1
	c0-5.1,4.7-14.4,21.3-17.2l6.9-1.5c0,0,2.5-0.3,2.5-1.8V5.6l0.7-0.7V2.2H35.7z"/>
</svg>
